<svg xmlns="http://www.w3.org/2000/svg" width="261.792" height="261.792" viewBox="0 0 261.792 261.792">
  <g id="Group_466" data-name="Group 466" transform="translate(-20.104 -20.104)">
    <path id="Path_54829" data-name="Path 54829" d="M192.56,51.816q1.983,3.378,3.831,7.074a165.842,165.842,0,0,1,12.069,33.3,229.2,229.2,0,0,0-30.909-5.28A229.523,229.523,0,0,0,152.3,68.991,166.189,166.189,0,0,1,184.822,54.05Q188.753,52.774,192.56,51.816Zm-.531-.9c-12.792,3.255-26.641,9.175-40.7,17.483-14.177-8.534-28.163-14.613-41.072-17.942,11.217-18.5,25.451-29.357,40.746-29.357C166.427,21.1,180.769,32.146,192.029,50.92Zm1.543.647c6.6,11.31,12.059,25.2,15.988,40.891C225.682,96.5,239.9,102.152,251.376,109c5.144-20.739,2.849-38.3-7.789-49.105C232.773,48.9,214.847,46.425,193.572,51.567Zm15.163,41.716a226.836,226.836,0,0,0-29.774-5.222c6.206,5.123,12.337,10.687,18.317,16.667s11.551,12.119,16.676,18.328A226.834,226.834,0,0,0,208.735,93.283Zm6.374,31.183a229.034,229.034,0,0,0-5.277-30.908,165.807,165.807,0,0,1,33.278,12.065q4.207,2.1,8.01,4.386-1.107,4.284-2.629,8.735a165.5,165.5,0,0,1-15.068,31.631A228.854,228.854,0,0,0,215.109,124.466Zm-.964.4a261.394,261.394,0,0,0-36.993-37,261.418,261.418,0,0,0-52.013-.029A261.3,261.3,0,0,0,87.9,124.573a261.36,261.36,0,0,0-.026,52.6,258.771,258.771,0,0,0,17.556,19.409,258.507,258.507,0,0,0,19.42,17.564A258.462,258.462,0,0,0,151,215.455a258.558,258.558,0,0,0,25.877-1.284,258.588,258.588,0,0,0,19.336-17.23,258.474,258.474,0,0,0,17.9-19.5A258.484,258.484,0,0,0,215.455,151,258.694,258.694,0,0,0,214.145,124.866Zm1.113,51.183c.785-8.108,1.2-16.482,1.2-25.049,0-8.451-.4-16.715-1.166-24.72a226.717,226.717,0,0,1,17.548,25.059A226.412,226.412,0,0,1,215.258,176.049Zm-1.336,3.189c-5.226,6.244-10.9,12.409-17.007,18.416-5.952,5.857-12.047,11.307-18.213,16.327a227.076,227.076,0,0,0,30.029-5.249A226.6,226.6,0,0,0,213.922,179.238Zm-4.093,29.219a229.037,229.037,0,0,0,5.248-30.61,228.535,228.535,0,0,0,18.338-25.538,165.425,165.425,0,0,1,14.808,31.738q1.4,4.189,2.429,8.237-3.589,2.13-7.542,4.107A165.8,165.8,0,0,1,209.829,208.457Zm-1.372,1.372a229.367,229.367,0,0,1-31.185,5.307,229.749,229.749,0,0,1-25.622,17.9,166.125,166.125,0,0,0,32.39,15.195q4.191,1.4,8.239,2.43,2.133-3.593,4.112-7.55A165.8,165.8,0,0,0,208.457,209.829Zm-15.166,41.084c6.723-11.392,12.281-25.449,16.266-41.356,15.9-3.984,29.957-9.54,41.348-16.261,5.144,21.006,2.758,38.748-8.055,49.561S214.3,256.056,193.291,250.913Zm-.535.9c21.3,5.277,39.579,2.976,50.8-8.246s13.523-29.5,8.245-50.8C270.6,181.43,281.9,166.878,281.9,151.007c0-15.739-11.111-30.18-29.624-41.469,5.279-21.037,3.07-39.128-7.972-50.347-11.223-11.4-29.69-13.8-51.258-8.524C181.671,31.591,167.009,20.1,151.007,20.1c-15.874,0-30.427,11.3-41.759,30.1-21.3-5.279-39.583-2.979-50.806,8.244s-13.523,29.5-8.245,50.8C31.4,120.584,20.1,135.136,20.1,151.007c0,15.742,11.116,30.186,29.637,41.477-5.277,21.034-3.067,39.121,7.973,50.339,11.225,11.4,29.694,13.8,51.265,8.522,11.37,19.069,26.028,30.551,42.028,30.551C166.876,281.9,181.425,270.6,192.756,251.81Zm-1.013-.256c-12.908-3.328-26.893-9.406-41.069-17.939-14.051,8.3-27.895,14.223-40.682,17.477,11.258,18.767,25.6,29.8,41.015,29.8C166.3,280.9,180.527,270.04,191.743,251.554ZM109.46,250.2q3.8-.957,7.732-2.232a166.171,166.171,0,0,0,32.51-14.937,229.547,229.547,0,0,1-25.254-17.919,229.282,229.282,0,0,1-30.89-5.275,165.82,165.82,0,0,0,12.064,33.277Q107.472,246.81,109.46,250.2ZM93.283,208.735a226.769,226.769,0,0,0,29.755,5.217c-6.206-5.122-12.337-10.686-18.317-16.666s-11.538-12.1-16.658-18.307A226.821,226.821,0,0,0,93.283,208.735Zm-6.375-31.166a229.192,229.192,0,0,0,5.278,30.892,165.844,165.844,0,0,1-33.3-12.07q-4.2-2.1-8-4.379,1.107-4.287,2.632-8.742a165.454,165.454,0,0,1,15.06-31.619A228.9,228.9,0,0,0,86.908,177.569Zm-.18-1.814c-.767-8.016-1.169-16.292-1.169-24.755,0-8.561.411-16.93,1.2-25.033a226.474,226.474,0,0,0-17.585,24.719A226.515,226.515,0,0,0,86.727,175.755Zm1.362-52.976c5.226-6.245,10.905-12.411,17.009-18.419,5.952-5.857,12.048-11.308,18.214-16.328a227.015,227.015,0,0,0-30.034,5.248A226.636,226.636,0,0,0,88.09,122.779Zm4.092-29.225a229.033,229.033,0,0,0-5.247,30.615,228.77,228.77,0,0,0-18.344,25.548,165.481,165.481,0,0,1-14.814-31.75q-1.4-4.189-2.429-8.237,3.589-2.13,7.542-4.107A165.836,165.836,0,0,1,92.182,93.554Zm.272-1.1C76.546,96.438,62.488,102,51.094,108.718c-5.144-21.006-2.758-38.748,8.055-49.561s28.557-13.2,49.564-8.054C101.993,62.494,96.437,76.55,92.454,92.454Zm1.1-.272A165.836,165.836,0,0,1,105.622,58.89q1.972-3.946,4.1-7.535,4.042,1.031,8.234,2.428a166.172,166.172,0,0,1,32.4,15.2,229.65,229.65,0,0,0-25.613,17.892A229.4,229.4,0,0,0,93.554,92.182Zm-1.1,117.379c3.931,15.688,9.391,29.577,15.99,40.885-21.277,5.143-39.206,2.665-50.022-8.325-10.637-10.808-12.932-28.362-7.791-49.1C62.11,199.869,76.334,205.523,92.458,209.561Zm82.984,5.755a227.253,227.253,0,0,1-24.764,17.134,227.258,227.258,0,0,1-24.416-17.162c8.011.766,16.28,1.167,24.738,1.167C159.353,216.455,167.524,216.064,175.442,215.316ZM68,150.682c-8.328-13.953-14.271-27.706-17.548-40.416C31.962,121.482,21.1,135.715,21.1,151.007c0,15.167,10.681,29.291,28.9,40.464C53.348,178.645,59.449,164.756,68,150.682ZM126.573,86.7a227.332,227.332,0,0,1,24.755-17.128,227.022,227.022,0,0,1,24.409,17.158c-8.01-.766-16.28-1.167-24.737-1.167C142.652,85.559,134.487,85.95,126.573,86.7Zm125.439,23.854c-3.35,12.827-9.453,26.718-18.007,40.793,8.324,13.949,14.265,27.7,17.541,40.4,18.491-11.217,29.35-25.449,29.35-40.741C280.9,135.844,270.219,121.723,252.012,110.551Zm-101-10.453.941,47.663L176.6,106.954,153.577,148.7l41.749-23.018-40.808,24.647,47.664.94-47.664.94,40.808,24.647L153.577,153.84,176.6,195.588,151.949,154.78l-.941,47.664-.94-47.664-24.646,40.808,23.017-41.748-41.748,23.018L147.5,152.211l-47.664-.94,47.664-.94-40.808-24.647L148.439,148.7l-23.017-41.748,24.646,40.807Z" fill="#0293da" fill-rule="evenodd"/>
  </g>
</svg>
