<svg xmlns="http://www.w3.org/2000/svg" width="217.582" height="212.196" viewBox="0 0 217.582 212.196">
  <g id="Group_464" data-name="Group 464" transform="translate(-1836.848 -2637)">
    <g id="Group_463" data-name="Group 463" transform="translate(1823.46 2631.434)">
      <path id="Path_54820" data-name="Path 54820" d="M155.907,212.168A106.1,106.1,0,0,1,17.414,93.293l1.053.185a105.028,105.028,0,0,0,137.1,117.677Z" fill="#fff"/>
      <path id="Path_54821" data-name="Path 54821" d="M88.111,11.093A106.1,106.1,0,0,1,226.154,131.411l-1.05-.2A105.029,105.029,0,0,0,88.452,12.107Z" fill="#fff"/>
      <path id="Path_54822" data-name="Path 54822" d="M60.413,21.567A13.237,13.237,0,0,0,70.774,11.206,13.237,13.237,0,0,0,81.136,21.567,13.237,13.237,0,0,0,70.774,31.929,13.237,13.237,0,0,0,60.413,21.567Z" fill="none" stroke="#fff" stroke-width="1"/>
      <path id="Path_54823" data-name="Path 54823" d="M217.272,140.63A13.238,13.238,0,0,0,230.7,146.5a13.238,13.238,0,0,0-5.868,13.427,13.238,13.238,0,0,0-13.427-5.868A13.236,13.236,0,0,0,217.272,140.63Z" fill="none" stroke="#fff" stroke-width="1"/>
      <path id="Path_54824" data-name="Path 54824" d="M184.946,201.033a13.238,13.238,0,0,0-10.18,10.54,13.236,13.236,0,0,0-10.539-10.18,13.236,13.236,0,0,0,10.179-10.54A13.24,13.24,0,0,0,184.946,201.033Z" fill="none" stroke="#fff" stroke-width="1"/>
      <path id="Path_54825" data-name="Path 54825" d="M22.682,61.039a13.237,13.237,0,0,0,11.451,9.142,13.237,13.237,0,0,0-9.142,11.451A13.237,13.237,0,0,0,13.54,72.49,13.237,13.237,0,0,0,22.682,61.039Z" fill="none" stroke="#fff" stroke-width="1"/>
    </g>
  </g>
</svg>
