<svg xmlns="http://www.w3.org/2000/svg" width="529.521" height="202.797" viewBox="0 0 529.521 202.797">
  <g id="Group_465" data-name="Group 465" transform="translate(0 -18.101)">
    <path id="Path_54827" data-name="Path 54827" d="M262.687,67.294l1.358-49.179L265.4,67.294a52.311,52.311,0,0,0,50.848,50.848L365.43,119.5l-49.179,1.358A52.311,52.311,0,0,0,265.4,171.706l-1.358,49.179-1.358-49.179a52.311,52.311,0,0,0-50.848-50.848L162.66,119.5l49.179-1.358A52.311,52.311,0,0,0,262.687,67.294Z" fill="none" stroke="#fff" stroke-width="1"/>
    <path id="Path_54828" data-name="Path 54828" d="M529.021,119.5c0,11.732-7.27,22.991-20.612,33.307s-32.662,19.617-56.59,27.442c-47.85,15.648-113.985,25.335-187.059,25.335S125.552,195.9,77.7,180.249c-23.928-7.825-43.255-17.132-56.59-27.442S.5,131.232.5,119.5,7.77,96.509,21.112,86.193,53.774,66.576,77.7,58.751C125.552,43.1,191.687,33.416,264.76,33.416S403.969,43.1,451.819,58.751c23.928,7.825,43.255,17.132,56.59,27.442S529.021,107.768,529.021,119.5Z" fill="none" stroke="#fff" stroke-width="1"/>
  </g>
</svg>
