<svg xmlns="http://www.w3.org/2000/svg" width="256.611" height="256.611" viewBox="0 0 256.611 256.611">
  <path id="Path_54826" data-name="Path 54826" d="M-61.5,13.682C-45.887-1.687-19.151-3.055,11.687,7.5A205.426,205.426,0,0,1,51.475,26.536,311.181,311.181,0,0,0-50.454,126.85a205.43,205.43,0,0,1-18.4-40.086C-78.913,55.761-77.119,29.05-61.5,13.682Zm10.656,113.809C-78.521,80.473-84.5,35.382-61.968,13.209S5.552-2.268,52.122,26.153C99.139-1.52,144.229-7.5,166.4,15.033s15.477,67.519-12.943,114.089c27.674,47.018,33.651,92.108,11.121,114.281S97.061,258.879,50.491,230.459C3.473,258.133-41.618,264.111-63.791,241.581S-79.267,174.061-50.847,127.491ZM49.85,230.066a205.385,205.385,0,0,1-40.086,18.4c-31,10.06-57.713,8.266-73.082-7.35s-16.736-42.351-6.183-73.19a205.434,205.434,0,0,1,19.036-39.787,299.976,299.976,0,0,0,44.222,56.8A299.971,299.971,0,0,0,49.85,230.066Zm.647-.381A299.11,299.11,0,0,1-5.77,184.478a299.1,299.1,0,0,1-44.3-56.98A310.382,310.382,0,0,1,52.116,26.927a299.1,299.1,0,0,1,56.265,45.207,299.105,299.105,0,0,1,44.3,56.982,299.091,299.091,0,0,1-45.208,56.267A299.1,299.1,0,0,1,50.5,229.686Zm.641.391a205.457,205.457,0,0,0,39.786,19.036c30.838,10.554,57.574,9.186,73.19-6.183s17.41-42.079,7.35-73.082a205.4,205.4,0,0,0-18.4-40.085,299.956,299.956,0,0,1-45.124,56.092A299.962,299.962,0,0,1,51.139,230.077Zm101.938-101.6a205.455,205.455,0,0,0,19.036-39.786C182.666,57.85,181.3,31.114,165.93,15.5s-42.08-17.41-73.082-7.35a205.427,205.427,0,0,0-40.084,18.4,299.99,299.99,0,0,1,56.091,45.123A300,300,0,0,1,153.077,128.474ZM51.306,65.505l-.332,12.012-.821,29.724a20.828,20.828,0,0,1-20.245,20.245l-29.724.821-12.012.332,12.012.332,29.724.821a20.828,20.828,0,0,1,20.245,20.245l.821,29.724.332,12.012.332-12.012.821-29.724A20.828,20.828,0,0,1,72.7,129.791l29.724-.821,12.012-.332-12.012-.332L72.7,127.486a20.828,20.828,0,0,1-20.245-20.245l-.821-29.724Zm0,24.023-.49,17.731a21.491,21.491,0,0,1-20.889,20.89l-17.73.489,17.73.489a21.491,21.491,0,0,1,20.889,20.89l.49,17.731.489-17.731a21.492,21.492,0,0,1,20.89-20.89l17.731-.489-17.731-.489A21.492,21.492,0,0,1,51.8,107.26Z" transform="translate(77)" fill="#fff" fill-rule="evenodd"/>
</svg>
