<svg xmlns="http://www.w3.org/2000/svg" width="414" height="414" viewBox="0 0 414 414">
  <g id="Group_467" data-name="Group 467" transform="translate(108 1)">
    <path id="Path_54831" data-name="Path 54831" d="M103.015,209.311C214.932,209.277,305,207.808,305,206c0-1.78-87.3-3.231-196.805-3.309,54-54.127,95.934-97.508,95.049-98.393s-45.629,42.363-100.932,97.582C102.276,90.011,100.807,0,99,0s-3.277,90.069-3.311,201.989C40.336,146.718-4.452,103.4-5.352,104.3S35.694,148.564,89.7,202.691C-19.756,202.77-107,204.221-107,206c0,1.807,90.01,3.276,201.878,3.311C38.4,265.829-6.265,311.98-5.351,312.893S40.337,270.472,95.692,215.2C95.769,324.7,97.221,412,99,412s3.231-87.241,3.309-196.692c55.305,55.22,100.036,98.484,100.935,97.585S159.491,265.829,103.015,209.311Z" fill="#fff" fill-rule="evenodd"/>
    <path id="Path_54832" data-name="Path 54832" d="M103.015,209.311v-1H100.6l1.705,1.706Zm5.18-6.62-.708-.706-1.7,1.705h2.408ZM203.244,104.3l.707-.707h0ZM102.312,201.88h-1v2.41l1.706-1.7Zm-6.623.109-.707.707,1.706,1.7v-2.411Zm-5.992.7v1h2.408l-1.7-1.705Zm5.181,6.62.707.707,1.7-1.706H94.878ZM-5.351,312.893l-.707.707h0ZM95.692,215.2h1l0-2.409-1.7,1.7Zm6.617.108.707-.707-1.705-1.7,0,2.409Zm100.935,97.585-.707-.707h0ZM103.015,210.311c55.962-.017,106.464-.393,142.978-.991,18.256-.3,33.02-.653,43.224-1.046,5.1-.2,9.071-.4,11.774-.617,1.347-.107,2.4-.218,3.128-.335a6.657,6.657,0,0,0,.925-.2,1.865,1.865,0,0,0,.431-.2A1.1,1.1,0,0,0,306,206h-2a.9.9,0,0,1,.394-.757c.065-.042.1-.045.039-.027a4.885,4.885,0,0,1-.63.131q-.971.156-2.971.316c-2.66.212-6.6.417-11.692.613-10.182.392-24.929.746-43.18,1.045-36.5.6-86.99.973-142.946.99ZM306,206a1.106,1.106,0,0,0-.517-.921,1.874,1.874,0,0,0-.427-.2,6.456,6.456,0,0,0-.9-.2c-.707-.115-1.731-.224-3.038-.33-2.622-.212-6.477-.415-11.428-.609-9.906-.388-24.25-.739-42.009-1.037-35.52-.6-84.727-.977-139.482-1.016v2c54.748.039,103.943.421,139.45,1.016,17.754.3,32.08.648,41.964,1.035,4.944.194,8.766.4,11.345.6q1.942.156,2.878.31a4.435,4.435,0,0,1,.6.128c.054.017.02.013-.046-.031A.9.9,0,0,1,304,206Zm-197.1-2.6c27-27.066,50.991-51.448,68.119-69.175,8.563-8.862,15.415-16.066,20.073-21.111,2.327-2.521,4.115-4.512,5.3-5.906.588-.693,1.041-1.256,1.337-1.67a4.62,4.62,0,0,0,.367-.583,1.488,1.488,0,0,0,.138-.385,1.067,1.067,0,0,0-.283-.977L202.537,105a.929.929,0,0,1-.263-.833.5.5,0,0,1,.035-.116,3.091,3.091,0,0,1-.206.316c-.247.345-.657.858-1.237,1.541-1.153,1.36-2.918,3.326-5.241,5.842-4.642,5.029-11.482,12.22-20.042,21.079-17.117,17.717-41.1,42.09-68.1,69.151Zm95.048-99.807a1.074,1.074,0,0,0-.986-.282,1.569,1.569,0,0,0-.385.141,4.831,4.831,0,0,0-.594.377c-.424.305-1,.772-1.716,1.379-1.434,1.219-3.483,3.062-6.078,5.46-5.192,4.8-12.6,11.855-21.708,20.66-18.212,17.61-43.225,42.235-70.879,69.847l1.413,1.415c27.65-27.607,52.654-52.223,70.857-69.824,9.1-8.8,16.5-15.844,21.675-20.629,2.589-2.394,4.614-4.214,6.015-5.4.7-.6,1.232-1.023,1.589-1.279a2.92,2.92,0,0,1,.331-.217.775.775,0,0,1-.11.033.928.928,0,0,1-.838-.262ZM103.312,201.88c-.018-55.938-.394-106.414-.992-142.907-.3-18.246-.653-33-1.046-43.2-.2-5.1-.4-9.066-.617-11.767-.107-1.346-.218-2.4-.335-3.127a6.647,6.647,0,0,0-.2-.924,1.859,1.859,0,0,0-.195-.431A1.105,1.105,0,0,0,99-1V1a.9.9,0,0,1-.757-.394C98.2.541,98.2.51,98.217.567a4.832,4.832,0,0,1,.131.629q.155.969.316,2.969c.212,2.659.417,6.6.613,11.685.392,10.175.746,24.914,1.045,43.155.6,36.48.973,86.944.991,142.875ZM99-1a1.105,1.105,0,0,0-.926.525,1.841,1.841,0,0,0-.195.431,6.572,6.572,0,0,0-.2.924c-.117.728-.228,1.782-.335,3.129-.215,2.7-.421,6.674-.618,11.774-.393,10.2-.747,24.969-1.046,43.225-.6,36.514-.974,87.017-.991,142.98h2c.017-55.956.393-106.448.991-142.948.3-18.251.653-33,1.045-43.18.2-5.093.4-9.032.613-11.692q.159-2,.316-2.971a4.819,4.819,0,0,1,.131-.63C99.8.51,99.8.541,99.757.606A.9.9,0,0,1,99,1ZM96.4,201.281c-27.679-27.638-52.719-52.289-70.952-69.921-9.116-8.814-16.535-15.878-21.733-20.684-2.6-2.4-4.649-4.247-6.085-5.468-.714-.607-1.293-1.075-1.718-1.38a4.761,4.761,0,0,0-.594-.378,1.576,1.576,0,0,0-.385-.141,1.072,1.072,0,0,0-.986.282L-4.645,105a.928.928,0,0,1-.838.262c-.092-.02-.138-.048-.11-.033a2.9,2.9,0,0,1,.331.217c.357.257.886.682,1.591,1.281,1.4,1.193,3.43,3.015,6.022,5.412,5.182,4.791,12.588,11.843,21.7,20.654,18.224,17.622,43.255,42.265,70.929,69.9ZM-6.059,103.591a1.072,1.072,0,0,0-.283.977,1.556,1.556,0,0,0,.138.385,4.623,4.623,0,0,0,.367.583c.3.414.749.977,1.337,1.67,1.181,1.394,2.969,3.385,5.3,5.906,4.658,5.045,11.51,12.249,20.073,21.112C38,151.95,61.985,176.332,88.989,203.4l1.416-1.413c-27-27.061-50.979-51.434-68.1-69.151-8.56-8.859-15.4-16.05-20.042-21.079-2.323-2.516-4.088-4.482-5.241-5.842-.579-.683-.989-1.2-1.236-1.541a2.986,2.986,0,0,1-.206-.316.531.531,0,0,1,.035.116.929.929,0,0,1-.263.833Zm95.755,98.1c-54.73.04-103.91.422-139.409,1.017-17.749.3-32.083.648-41.984,1.036-4.948.194-8.8.4-11.421.61-1.306.1-2.329.214-3.036.33a6.34,6.34,0,0,0-.9.2,1.855,1.855,0,0,0-.427.2A1.106,1.106,0,0,0-108,206h2a.9.9,0,0,1-.39.754c-.066.044-.1.048-.046.031a4.5,4.5,0,0,1,.6-.127q.938-.153,2.876-.311c2.578-.208,6.4-.411,11.338-.6,9.878-.387,24.2-.738,41.939-1.035,35.486-.595,84.654-.977,139.377-1.017ZM-108,206a1.106,1.106,0,0,0,.525.926,1.847,1.847,0,0,0,.431.2,6.64,6.64,0,0,0,.924.2c.727.117,1.781.227,3.127.334,2.7.215,6.67.422,11.766.618,10.2.393,24.953.747,43.2,1.046,36.493.6,86.968.974,142.905.991v-2c-55.93-.017-106.394-.393-142.873-.991-18.241-.3-32.979-.653-43.154-1.045-5.09-.2-9.027-.4-11.686-.612q-2-.159-2.969-.316a4.855,4.855,0,0,1-.629-.131c-.057-.018-.026-.015.039.027A.9.9,0,0,1-106,206Zm202.17,2.6c-28.241,28.262-53.53,53.933-71.647,72.654-9.057,9.36-16.326,16.987-21.275,22.334-2.473,2.671-4.375,4.782-5.633,6.258-.626.734-1.108,1.329-1.423,1.764a4.974,4.974,0,0,0-.387.6,1.6,1.6,0,0,0-.144.386,1.075,1.075,0,0,0,.28.995l1.414-1.414a.926.926,0,0,1,.261.843.933.933,0,0,1-.031.1,3.256,3.256,0,0,1,.228-.347c.267-.368.706-.914,1.324-1.639,1.231-1.444,3.11-3.53,5.578-6.2,4.934-5.33,12.19-12.944,21.245-22.3,18.107-18.711,43.389-44.375,71.624-72.631ZM-6.059,313.6a1.075,1.075,0,0,0,.987.282,1.576,1.576,0,0,0,.385-.141,4.761,4.761,0,0,0,.594-.378c.425-.306,1-.773,1.718-1.38,1.435-1.221,3.487-3.066,6.085-5.468,5.2-4.806,12.618-11.87,21.734-20.685C43.679,268.2,68.719,243.546,96.4,215.908l-1.413-1.416c-27.675,27.634-52.707,52.278-70.931,69.9-9.113,8.812-16.519,15.864-21.7,20.654-2.593,2.4-4.62,4.22-6.023,5.413-.7.6-1.234,1.024-1.591,1.281a2.9,2.9,0,0,1-.332.217.767.767,0,0,1,.11-.033.928.928,0,0,1,.838.262Zm100.75-98.4c.039,54.754.421,103.959,1.016,139.479.3,17.758.648,32.1,1.036,42.008.194,4.951.4,8.805.609,11.428.106,1.306.215,2.33.33,3.037a6.314,6.314,0,0,0,.2.9,1.822,1.822,0,0,0,.2.427A1.1,1.1,0,0,0,99,413v-2a.9.9,0,0,1,.754.39c.043.066.048.1.031.046a4.531,4.531,0,0,1-.128-.6q-.153-.937-.311-2.878c-.208-2.579-.411-6.4-.6-11.345-.387-9.883-.738-24.209-1.035-41.963-.595-35.505-.977-84.7-1.016-139.447ZM99,413a1.1,1.1,0,0,0,.921-.517,1.812,1.812,0,0,0,.2-.427,6.469,6.469,0,0,0,.2-.9c.115-.707.224-1.73.33-3.036.212-2.62.415-6.473.609-11.42.388-9.9.739-24.235,1.036-41.983.6-35.5.978-84.677,1.017-139.406l-2,0c-.039,54.722-.422,103.89-1.016,139.374-.3,17.744-.648,32.06-1.035,41.938-.194,4.941-.4,8.76-.6,11.338q-.157,1.939-.311,2.876a4.564,4.564,0,0,1-.127.6c-.018.054-.013.02.031-.046A.9.9,0,0,1,99,411Zm2.6-196.984c27.655,27.612,52.668,52.237,70.881,69.848,9.106,8.8,16.516,15.86,21.709,20.66,2.594,2.4,4.644,4.242,6.077,5.461.714.606,1.292,1.073,1.717,1.379a4.831,4.831,0,0,0,.594.377,1.553,1.553,0,0,0,.385.141,1.074,1.074,0,0,0,.986-.282l-1.414-1.414a.927.927,0,0,1,.838-.262.945.945,0,0,1,.11.033,2.827,2.827,0,0,1-.331-.217q-.536-.384-1.589-1.279c-1.4-1.191-3.426-3.011-6.016-5.4-5.175-4.785-12.573-11.828-21.675-20.63-18.2-17.6-43.209-42.218-70.858-69.825ZM203.951,313.6a1.079,1.079,0,0,0,.28-.995,1.594,1.594,0,0,0-.145-.386,4.881,4.881,0,0,0-.387-.6c-.315-.435-.8-1.03-1.422-1.764-1.258-1.476-3.16-3.587-5.633-6.258-4.949-5.347-12.217-12.974-21.275-22.334-18.117-18.721-43.406-44.392-71.647-72.654l-1.415,1.414c28.236,28.256,53.518,53.92,71.625,72.631,9.054,9.357,16.31,16.971,21.244,22.3,2.469,2.667,4.348,4.753,5.579,6.2.618.725,1.057,1.271,1.324,1.639a3.336,3.336,0,0,1,.228.347c.016.03-.012-.014-.031-.1a.926.926,0,0,1,.261-.843Z"/>
  </g>
</svg>
